<?xml version="1.0" encoding="UTF-8"?>
<svg id="Calque_2" data-name="Calque 2" xmlns="http://www.w3.org/2000/svg" viewBox="0 0 101 101">
  <defs>
    <style>
      .cls-1 {
        fill: #0a84c7;
      }

      .cls-1, .cls-2 {
        stroke-width: 0px;
      }

      .cls-2 {
        fill: #fff;
      }
    </style>
  </defs>
  <g id="Calque_1-2" data-name="Calque 1">
    <rect id="fond" class="cls-1" width="101" height="101"/>
    <g>
      <path class="cls-2" d="m41.14,55.01c2.46-1.16,4.35-2.82,5.65-5,1.3-2.18,1.95-4.77,1.95-7.78s-.64-5.63-1.92-7.85-3.13-3.96-5.57-5.19-5.39-1.84-8.87-1.84H14.55v45.72h9.36v-16.32h7.34l8.74,16.32h10.37l-9.74-17.85c.17-.07.36-.13.52-.2Zm-17.23-19.93h6.72c1.92,0,3.5.28,4.74.83,1.24.55,2.16,1.36,2.78,2.41.61,1.05.92,2.36.92,3.91s-.31,2.79-.92,3.82c-.61,1.03-1.53,1.81-2.76,2.33-1.23.52-2.8.78-4.73.78h-6.75v-14.08Z"/>
      <path class="cls-2" d="m77.24,27.35v17.18h-.31c-.39-.9-.98-1.83-1.78-2.79s-1.84-1.77-3.13-2.42c-1.29-.65-2.9-.98-4.85-.98-2.54,0-4.86.65-6.97,1.96-2.11,1.31-3.79,3.27-5.06,5.89-1.27,2.62-1.9,5.88-1.9,9.79s.61,7.02,1.84,9.65,2.9,4.62,5.02,5.98c2.12,1.36,4.48,2.04,7.1,2.04,1.88,0,3.47-.32,4.76-.95,1.29-.63,2.34-1.42,3.15-2.35s1.42-1.86,1.83-2.78h.46v5.49h9.05V27.35h-9.21Zm-.68,34.01c-.57,1.54-1.41,2.75-2.52,3.61s-2.43,1.29-3.99,1.29-2.94-.44-4.03-1.32c-1.09-.88-1.92-2.1-2.49-3.65-.56-1.55-.84-3.33-.84-5.34s.28-3.77.83-5.31,1.38-2.74,2.47-3.62c1.09-.88,2.45-1.32,4.07-1.32s2.91.42,4.02,1.27c1.1.85,1.94,2.04,2.5,3.56.56,1.52.84,3.33.84,5.42s-.29,3.87-.86,5.42Z"/>
    </g>
  </g>
</svg>