<?xml version="1.0" encoding="UTF-8"?>
<svg id="Calque_2" data-name="Calque 2" xmlns="http://www.w3.org/2000/svg" viewBox="0 0 101 101">
  <defs>
    <style>
      .cls-1 {
        fill: #0a84c7;
      }

      .cls-1, .cls-2 {
        stroke-width: 0px;
      }

      .cls-2 {
        fill: #fff;
      }
    </style>
  </defs>
  <g id="Calque_1-2" data-name="Calque 1">
    <rect id="fond" class="cls-1" width="101" height="101"/>
    <g>
      <path class="cls-2" d="m36.33,48.91c-.26.83-.56,1.92-.9,3.25s-.68,2.77-1.03,4.29c-.34,1.48-.65,2.91-.95,4.29-.3-1.41-.61-2.86-.95-4.35-.35-1.53-.69-2.95-1.03-4.26-.34-1.32-.64-2.39-.9-3.22l-6.29-17.79h-12.17v38.74h7.88v-18.25c0-.88-.01-1.96-.04-3.24-.03-1.27-.06-2.65-.1-4.13-.04-1.48-.08-2.96-.12-4.43-.01-.56-.02-1.08-.03-1.61.18.68.34,1.35.53,2.04.42,1.53.83,3.02,1.23,4.46.41,1.44.79,2.75,1.16,3.94.36,1.19.68,2.18.94,2.98l6.53,18.25h6.68l6.42-18.25c.26-.8.57-1.8.94-3,.36-1.2.75-2.53,1.16-3.97.41-1.44.81-2.93,1.21-4.46.2-.75.38-1.49.56-2.22-.01.64-.03,1.29-.04,1.96-.03,1.48-.08,2.96-.12,4.42-.04,1.46-.08,2.83-.1,4.1-.03,1.27-.04,2.32-.04,3.17v18.25h7.98V31.13h-12.22l-6.19,17.79Z"/>
      <polygon class="cls-2" points="77.46 53.43 88.33 40.8 79.31 40.8 69.79 51.98 69.35 51.98 69.35 31.13 61.55 31.13 61.55 69.87 69.35 69.87 69.35 60.55 71.58 58.03 79.7 69.87 88.88 69.87 77.46 53.43"/>
    </g>
  </g>
</svg>