<?xml version="1.0" encoding="utf-8"?>
<!-- Generator: Adobe Illustrator 28.0.0, SVG Export Plug-In . SVG Version: 6.00 Build 0)  -->
<svg version="1.1" id="Calque_2_00000035504528189027611720000003143757547289040271_"
	 xmlns="http://www.w3.org/2000/svg" xmlns:xlink="http://www.w3.org/1999/xlink" x="0px" y="0px" viewBox="0 0 101 101"
	 style="enable-background:new 0 0 101 101;" xml:space="preserve">
<style type="text/css">
	.st0{fill:#1C1A17;}
	.st1{fill:#FFFFFF;}
</style>
<g id="Calque_1-2">
	<rect id="fond" y="0" class="st0" width="101" height="101"/>
	<g>
		<path class="st1" d="M41.1,55c2.5-1.2,4.3-2.8,5.7-5c1.3-2.2,2-4.8,2-7.8s-0.6-5.6-1.9-7.8s-3.1-4-5.6-5.2s-5.4-1.8-8.9-1.8H14.6
			v45.7H24V56.7h7.3L40,73.1h10.4l-9.7-17.8C40.8,55.1,41,55.1,41.1,55L41.1,55z M23.9,35.1h6.7c1.9,0,3.5,0.3,4.7,0.8
			s2.2,1.4,2.8,2.4s0.9,2.4,0.9,3.9S38.8,45,38.1,46c-0.6,1-1.5,1.8-2.8,2.3c-1.2,0.5-2.8,0.8-4.7,0.8h-6.8
			C23.9,49.2,23.9,35.1,23.9,35.1z"/>
		<path class="st1" d="M77.2,27.3v17.2h-0.3c-0.4-0.9-1-1.8-1.8-2.8S73.3,40,72,39.3s-2.9-1-4.8-1c-2.5,0-4.9,0.7-7,2
			s-3.8,3.3-5.1,5.9s-1.9,5.9-1.9,9.8s0.6,7,1.8,9.6s2.9,4.6,5,6s4.5,2,7.1,2c1.9,0,3.5-0.3,4.8-0.9s2.3-1.4,3.2-2.3
			s1.4-1.9,1.8-2.8h0.5v5.5h9.1V27.3H77.2L77.2,27.3z M76.6,61.4C76,62.9,75.1,64.1,74,65s-2.4,1.3-4,1.3s-2.9-0.4-4-1.3
			s-1.9-2.1-2.5-3.7c-0.6-1.5-0.8-3.3-0.8-5.3s0.3-3.8,0.8-5.3s1.4-2.7,2.5-3.6c1.1-0.9,2.4-1.3,4.1-1.3s2.9,0.4,4,1.3
			c1.1,0.8,1.9,2,2.5,3.6s0.8,3.3,0.8,5.4S77.1,59.8,76.6,61.4L76.6,61.4z"/>
	</g>
</g>
</svg>
